<?xml version="1.0" standalone="no"?>
<!DOCTYPE svg PUBLIC "-//W3C//DTD SVG 20010904//EN"
 "http://www.w3.org/TR/2001/REC-SVG-20010904/DTD/svg10.dtd">
<svg version="1.0" xmlns="http://www.w3.org/2000/svg"
 width="927.000000pt" height="927.000000pt" viewBox="0 0 927.000000 927.000000"
 preserveAspectRatio="xMidYMid meet">
<metadata>
Created by potrace 1.14, written by Peter Selinger 2001-2017
</metadata>
<g transform="translate(0.000000,927.000000) scale(0.100000,-0.100000)"
fill="#000000" stroke="none">
<path d="M7808 9255 c-1 -1 -30 -5 -63 -9 -261 -27 -585 -149 -835 -314 -318
-209 -621 -542 -870 -956 -41 -66 -74 -122 -75 -124 -1 -1 -49 9 -106 22 -110
26 -135 31 -239 47 -36 5 -72 11 -80 14 -8 2 -44 7 -80 10 -36 3 -72 8 -80 10
-101 26 -763 26 -923 0 -12 -2 -44 -6 -72 -10 -535 -65 -1074 -258 -1478 -529
-84 -56 -165 -112 -181 -126 -377 -321 -580 -601 -705 -976 -68 -204 -92 -347
-96 -569 -8 -454 135 -828 426 -1109 141 -136 293 -228 482 -291 102 -34 120
-38 206 -51 25 -4 55 -8 66 -11 32 -6 246 -5 300 2 98 12 277 53 304 69 4 3
25 -22 46 -57 73 -119 182 -236 310 -332 80 -61 217 -145 234 -145 8 0 10 -8
5 -22 -22 -70 -218 -557 -279 -693 -7 -16 -32 -72 -54 -122 -103 -235 -250
-530 -369 -738 -77 -136 -275 -446 -305 -477 -7 -7 -25 -31 -42 -53 -34 -46
-47 -62 -135 -164 -88 -104 -153 -172 -161 -169 -3 2 -60 53 -125 115 -532
502 -1061 724 -1521 638 -294 -55 -516 -200 -605 -395 -49 -106 -62 -207 -43
-332 23 -151 83 -266 200 -382 155 -154 368 -250 625 -284 73 -9 307 -9 395 1
38 4 94 14 125 22 30 8 69 17 87 20 66 11 297 98 413 155 66 33 166 87 221
120 80 49 102 58 112 48 7 -7 32 -38 57 -68 431 -527 926 -895 1345 -1000 123
-31 121 -31 253 -35 281 -8 516 90 739 310 93 91 95 95 67 96 -86 3 -91 1
-162 -50 -200 -146 -365 -202 -575 -197 -139 4 -158 7 -278 46 -169 56 -360
166 -549 316 -81 65 -360 337 -445 434 -22 25 -58 66 -80 90 -22 25 -56 65
-75 89 -19 24 -50 60 -67 80 -18 20 -33 39 -33 42 0 3 28 28 63 55 100 78 324
308 441 454 102 128 300 414 327 473 7 15 16 27 21 27 4 0 8 4 8 8 0 5 32 64
71 133 118 205 298 575 421 864 33 77 66 153 74 169 8 16 14 33 14 38 0 4 9
27 20 51 11 23 30 71 44 107 26 70 27 70 96 51 25 -7 52 -15 60 -16 8 -2 35
-8 60 -14 25 -5 68 -13 95 -17 28 -3 59 -8 70 -11 11 -3 101 -6 200 -8 347 -6
653 68 984 237 622 318 1098 900 1272 1553 23 88 24 94 39 175 18 100 23 174
24 325 1 192 -9 291 -46 440 -54 222 -109 356 -225 553 -31 51 -54 94 -52 96
2 1 52 19 111 39 352 120 722 356 979 624 265 277 396 552 414 868 2 48 -13
205 -26 260 -17 71 -63 170 -107 227 -77 103 -236 194 -370 214 -21 3 -44 8
-52 11 -16 5 -256 14 -262 8z m117 -131 c234 -75 377 -304 384 -618 7 -296
-129 -599 -393 -876 -192 -201 -412 -358 -682 -486 -158 -76 -160 -76 -209
-12 -57 73 -213 227 -308 304 -135 108 -250 181 -420 266 -66 33 -95 53 -91
61 98 167 324 505 441 659 345 454 680 694 1012 725 31 2 57 6 58 7 7 7 165
-16 208 -30z m-2860 -1218 c66 -4 135 -9 153 -12 17 -2 49 -6 70 -9 90 -13
203 -34 312 -60 94 -23 268 -81 284 -95 11 -11 -49 -141 -262 -572 -193 -390
-171 -360 -272 -373 -25 -4 -63 -10 -85 -15 -22 -5 -56 -12 -75 -15 -262 -46
-617 -174 -817 -296 -37 -23 -71 -43 -74 -45 -3 -2 -30 15 -59 37 -69 52 -177
103 -270 128 -98 26 -137 31 -234 32 -72 0 -106 -3 -181 -16 -289 -49 -577
-275 -684 -535 -52 -128 -72 -312 -49 -447 l10 -53 59 0 c53 0 60 2 55 18 -33
114 -22 294 25 414 124 316 518 492 879 392 61 -17 192 -77 219 -101 18 -14
16 -17 -22 -52 -91 -80 -187 -191 -255 -292 -139 -207 -235 -464 -260 -694
-14 -134 -5 -349 19 -454 22 -92 63 -217 95 -281 17 -36 29 -68 25 -71 -8 -8
-132 -36 -197 -45 -459 -59 -877 166 -1096 591 -42 83 -113 296 -133 400 -20
108 -35 209 -40 265 -7 70 -7 289 -1 330 2 14 6 50 10 80 40 313 202 662 430
922 213 244 468 434 801 598 391 192 784 294 1255 326 52 3 96 7 97 7 3 3 148
-1 268 -7z m1185 -400 c100 -69 230 -179 310 -262 80 -83 187 -220 179 -228
-3 -3 -80 -20 -230 -51 -9 -2 -34 -6 -55 -9 -22 -4 -91 -15 -154 -26 -63 -11
-135 -22 -160 -25 -25 -3 -56 -7 -70 -10 -29 -5 -55 -9 -160 -24 -106 -15
-150 -20 -150 -16 0 1 47 106 104 231 103 228 202 424 238 476 l19 28 42 -27
c23 -14 62 -40 87 -57z m595 -681 c128 -224 215 -485 243 -729 9 -80 9 -363
-1 -450 -9 -80 -42 -248 -65 -326 -9 -30 -17 -59 -18 -65 -6 -28 -70 -198 -96
-255 -251 -552 -705 -986 -1218 -1168 -99 -35 -271 -77 -350 -87 -30 -4 -68
-9 -85 -12 -70 -11 -338 -3 -418 13 -12 2 -49 9 -82 14 -33 5 -79 15 -102 22
l-41 13 63 165 c35 91 87 228 115 305 28 77 55 149 59 160 5 11 23 58 39 105
71 196 248 695 292 820 103 293 316 870 365 985 7 17 48 117 91 223 43 106 81
195 84 197 3 2 44 9 90 15 47 6 96 13 110 15 14 2 50 7 80 10 30 3 62 8 70 10
8 2 38 7 65 10 88 10 128 15 190 25 33 5 77 12 99 16 21 3 48 8 60 10 11 3 37
7 56 10 19 3 76 14 125 24 50 10 99 17 109 17 13 -2 36 -32 71 -92z m-1488
-234 c-27 -64 -55 -129 -62 -146 -56 -128 -273 -688 -386 -1000 -38 -104 -74
-199 -78 -210 -5 -11 -35 -92 -67 -180 -31 -88 -72 -203 -91 -255 -19 -52 -45
-124 -57 -160 -42 -117 -254 -684 -266 -712 l-12 -26 -37 20 c-188 105 -320
226 -432 397 l-49 74 88 47 c331 175 563 483 659 880 21 86 26 133 28 265 3
164 -9 253 -52 395 -26 86 -99 237 -149 307 -25 35 -44 66 -42 67 20 16 246
123 326 155 135 54 419 140 522 157 14 3 61 13 105 23 44 9 85 18 91 18 6 0
-11 -52 -39 -116z m-1023 -601 c179 -276 193 -611 37 -942 -112 -241 -342
-466 -573 -563 l-38 -15 -25 50 c-25 50 -64 142 -71 170 -10 40 -26 107 -30
125 -26 112 -26 387 0 510 16 74 29 125 47 179 27 84 28 87 92 216 84 170 205
330 342 449 l39 34 69 -74 c37 -41 87 -103 111 -139z m-2675 -3945 c165 -25
378 -121 546 -247 127 -95 337 -301 478 -470 53 -64 97 -119 97 -123 0 -13
-205 -139 -302 -185 -100 -48 -273 -110 -367 -131 -25 -6 -54 -13 -63 -15
-118 -28 -296 -47 -423 -45 -514 6 -900 316 -878 704 12 219 162 383 428 470
131 43 350 62 484 42z"/>
</g>
</svg>
