
<svg width="476" height="459" viewBox="0 0 476 459" fill="none" xmlns="http://www.w3.org/2000/svg">
<rect width="476" height="459" fill="white"/>
<path d="M199.72 173.01C199.113 174.137 195.473 181.46 188.8 194.98C184.38 203.993 179.917 210.797 175.41 215.39C170.99 220.07 167.61 222.41 165.27 222.41C164.23 222.41 163.71 221.933 163.71 220.98L164.1 219.42C165.053 216.82 168 210.71 172.94 201.09C177.967 191.47 182.647 182.933 186.98 175.48C191.053 168.373 195.04 161.527 198.94 154.94C202.84 148.267 205.743 143.37 207.65 140.25L210.51 135.57C210.683 135.31 210.9 134.963 211.16 134.53C211.42 134.097 211.983 133.317 212.85 132.19C213.803 131.063 214.757 130.11 215.71 129.33C216.663 128.463 217.79 127.683 219.09 126.99C220.39 126.297 221.647 125.95 222.86 125.95C223.987 125.95 224.55 126.253 224.55 126.86C224.55 127.64 224.03 128.767 222.99 130.24C216.49 141.333 209.557 153.943 202.19 168.07C202.103 168.243 202.06 168.417 202.06 168.59C202.06 168.85 202.233 168.98 202.58 168.98C208.04 168.98 213.067 167.94 217.66 165.86C222.34 163.78 226.11 161.093 228.97 157.8C231.917 154.42 234.17 150.823 235.73 147.01C237.377 143.197 238.2 139.427 238.2 135.7C238.2 130.413 236.207 126.427 232.22 123.74C228.233 121.053 223.553 119.71 218.18 119.71C214.107 119.71 210.12 120.317 206.22 121.53C202.407 122.743 199.027 124.823 196.08 127.77C193.22 130.717 191.79 134.227 191.79 138.3C191.79 140.727 192.44 143.067 193.74 145.32C194.173 146.187 194.39 146.793 194.39 147.14C194.39 147.66 194.043 147.92 193.35 147.92C193.177 147.92 192.83 147.833 192.31 147.66C192.05 147.573 191.703 147.4 191.27 147.14C190.837 146.88 190.057 146.36 188.93 145.58C187.803 144.8 186.807 143.977 185.94 143.11C185.073 142.243 184.293 141.117 183.6 139.73C182.907 138.257 182.56 136.783 182.56 135.31C182.56 129.937 185.853 125.43 192.44 121.79C199.113 118.15 206.653 116.33 215.06 116.33C219.133 116.33 222.99 116.677 226.63 117.37C230.357 118.063 233.953 119.19 237.42 120.75C240.973 122.223 243.79 124.39 245.87 127.25C247.95 130.11 248.99 133.49 248.99 137.39C248.99 143.197 247.473 148.44 244.44 153.12C241.493 157.713 237.593 161.397 232.74 164.17C227.973 166.857 222.86 168.937 217.4 170.41C211.94 171.797 206.437 172.49 200.89 172.49C200.803 172.403 200.673 172.36 200.5 172.36C200.153 172.36 199.893 172.577 199.72 173.01Z" fill="black"/>
<path d="M300.32 177.54C295.813 184.04 290.787 192.273 285.24 202.24C279.693 212.207 275.273 220.57 271.98 227.33L267.04 237.47C258.113 256.017 253.65 269.32 253.65 277.38C253.65 277.553 253.65 277.9 253.65 278.42C253.737 278.94 253.78 279.373 253.78 279.72C253.78 281.107 253.39 281.8 252.61 281.8C251.137 281.8 249.533 280.5 247.8 277.9C246.067 275.387 245.2 272.007 245.2 267.76C245.2 263.86 246.11 259.093 247.93 253.46C249.837 247.827 252.61 241.413 256.25 234.22C259.89 226.94 262.923 221.09 265.35 216.67C267.863 212.25 271.157 206.487 275.23 199.38C275.49 198.86 275.62 198.47 275.62 198.21C275.447 197.777 275.23 197.56 274.97 197.56C274.45 197.56 273.93 197.777 273.41 198.21C268.297 202.37 261.58 209.433 253.26 219.4C244.94 229.367 237.92 238.293 232.2 246.18L223.49 258.01C222.103 260.09 220.977 261.13 220.11 261.13C219.85 261.13 219.633 261.043 219.46 260.87C219.287 260.697 219.157 260.48 219.07 260.22C218.983 259.873 218.897 259.57 218.81 259.31C218.81 259.05 218.81 258.833 218.81 258.66V258.4C219.417 253.027 220.283 245.53 221.41 235.91C222.623 226.29 223.62 218.187 224.4 211.6C225.18 205.013 225.57 201.633 225.57 201.46C225.57 200.593 225.397 200.16 225.05 200.16C224.877 200.16 224.617 200.29 224.27 200.55C224.01 200.81 223.793 201.07 223.62 201.33L223.36 201.72C219.633 207.267 215.647 214.46 211.4 223.3C207.153 232.053 203.73 239.81 201.13 246.57C199.223 251.423 197.273 255.887 195.28 259.96C193.287 263.947 191.51 267.067 189.95 269.32C188.477 271.487 187.133 273.307 185.92 274.78C184.62 276.34 183.623 277.38 182.93 277.9L181.89 278.68C180.937 279.46 180.2 279.85 179.68 279.85C179.16 279.85 178.9 279.417 178.9 278.55L179.03 277.38C179.897 272.787 183.667 264.033 190.34 251.12C197.1 238.207 203.643 226.42 209.97 215.76L219.46 199.9L226.61 187.55C230.163 177.41 232.893 172.34 234.8 172.34C236.1 172.34 236.75 174.55 236.75 178.97C234.063 211.21 232.72 229.627 232.72 234.22C232.72 235.52 232.98 236.17 233.5 236.17C234.02 236.17 234.627 235.693 235.32 234.74C236.447 233.267 238.007 231.273 240 228.76C241.993 226.247 245.807 221.74 251.44 215.24C257.073 208.74 262.36 202.89 267.3 197.69C272.327 192.49 277.787 187.507 283.68 182.74C289.573 177.973 294.427 175.07 298.24 174.03C299.107 173.857 299.67 173.77 299.93 173.77C300.97 173.77 301.49 174.16 301.49 174.94C301.49 175.633 301.1 176.5 300.32 177.54Z" fill="black"/>
<path d="M22.52 428.16C22.1467 428.853 19.9067 433.36 15.8 441.68C13.08 447.227 10.3333 451.413 7.56 454.24C4.84 457.12 2.76 458.56 1.32 458.56C0.68 458.56 0.36 458.267 0.36 457.68L0.6 456.72C1.18667 455.12 3 451.36 6.04 445.44C9.13333 439.52 12.0133 434.267 14.68 429.68C17.1867 425.307 19.64 421.093 22.04 417.04C24.44 412.933 26.2267 409.92 27.4 408L29.16 405.12C29.2667 404.96 29.4 404.747 29.56 404.48C29.72 404.213 30.0667 403.733 30.6 403.04C31.1867 402.347 31.7733 401.76 32.36 401.28C32.9467 400.747 33.64 400.267 34.44 399.84C35.24 399.413 36.0133 399.2 36.76 399.2C37.4533 399.2 37.8 399.387 37.8 399.76C37.8 400.24 37.48 400.933 36.84 401.84C32.84 408.667 28.5733 416.427 24.04 425.12C23.9867 425.227 23.96 425.333 23.96 425.44C23.96 425.6 24.0667 425.68 24.28 425.68C27.64 425.68 30.7333 425.04 33.56 423.76C36.44 422.48 38.76 420.827 40.52 418.8C42.3333 416.72 43.72 414.507 44.68 412.16C45.6933 409.813 46.2 407.493 46.2 405.2C46.2 401.947 44.9733 399.493 42.52 397.84C40.0667 396.187 37.1867 395.36 33.88 395.36C31.3733 395.36 28.92 395.733 26.52 396.48C24.1733 397.227 22.0933 398.507 20.28 400.32C18.52 402.133 17.64 404.293 17.64 406.8C17.64 408.293 18.04 409.733 18.84 411.12C19.1067 411.653 19.24 412.027 19.24 412.24C19.24 412.56 19.0267 412.72 18.6 412.72C18.4933 412.72 18.28 412.667 17.96 412.56C17.8 412.507 17.5867 412.4 17.32 412.24C17.0533 412.08 16.5733 411.76 15.88 411.28C15.1867 410.8 14.5733 410.293 14.04 409.76C13.5067 409.227 13.0267 408.533 12.6 407.68C12.1733 406.773 11.96 405.867 11.96 404.96C11.96 401.653 13.9867 398.88 18.04 396.64C22.1467 394.4 26.7867 393.28 31.96 393.28C34.4667 393.28 36.84 393.493 39.08 393.92C41.3733 394.347 43.5867 395.04 45.72 396C47.9067 396.907 49.64 398.24 50.92 400C52.2 401.76 52.84 403.84 52.84 406.24C52.84 409.813 51.9067 413.04 50.04 415.92C48.2267 418.747 45.8267 421.013 42.84 422.72C39.9067 424.373 36.76 425.653 33.4 426.56C30.04 427.413 26.6533 427.84 23.24 427.84C23.1867 427.787 23.1067 427.76 23 427.76C22.7867 427.76 22.6267 427.893 22.52 428.16ZM54.4863 437.44C54.0596 437.44 53.8463 437.28 53.8463 436.96C53.8463 436.8 53.9263 436.587 54.0863 436.32C57.2329 431.413 58.8063 428.053 58.8063 426.24C58.8063 425.76 58.6196 425.52 58.2463 425.52C56.6463 425.52 52.8863 429.147 46.9663 436.4C45.2063 438.64 43.5529 440.96 42.0063 443.36C40.5129 445.76 39.4729 447.6 38.8863 448.88L37.9263 450.72C37.2863 452 36.2996 453.173 34.9663 454.24C33.6329 455.36 32.2462 455.92 30.8062 455.92C30.0596 455.92 29.6862 455.733 29.6862 455.36C29.6862 455.04 29.9262 454.373 30.4062 453.36C30.8329 452.347 31.3662 451.227 32.0062 450C32.6462 448.773 33.2862 447.573 33.9262 446.4C34.5663 445.227 35.0996 444.24 35.5263 443.44L36.2463 442.24L44.6463 427.6C47.8996 421.467 51.3129 418.4 54.8863 418.4C55.3663 418.4 55.6063 418.587 55.6063 418.96C55.6063 419.44 54.4329 421.44 52.0863 424.96C49.7929 428.427 48.4596 430.64 48.0863 431.6C47.9796 431.92 47.9263 432.107 47.9263 432.16C47.9263 432.267 47.9796 432.32 48.0863 432.32C48.1929 432.32 48.3796 432.187 48.6463 431.92C52.6463 427.387 56.8863 423.36 61.3663 419.84C61.6329 419.573 62.2196 419.2 63.1263 418.72C64.0329 418.187 64.8329 417.92 65.5263 417.92C66.5396 417.92 67.0463 418.8 67.0463 420.56C67.0463 422.48 66.4063 424.773 65.1263 427.44C63.8463 430.107 62.1129 432.453 59.9263 434.48L59.6063 434.8C59.3929 434.96 59.1529 435.147 58.8863 435.36C58.6729 435.52 58.3796 435.733 58.0063 436C57.6329 436.267 57.2596 436.507 56.8863 436.72C56.5129 436.88 56.1129 437.04 55.6863 437.2C55.2596 437.36 54.8596 437.44 54.4863 437.44ZM92.7256 425.84C93.2056 425.947 93.4456 426.107 93.4456 426.32C93.4456 426.64 93.2323 427.013 92.8056 427.44C92.219 428.027 91.339 428.8 90.1656 429.76C89.0456 430.72 88.379 431.307 88.1656 431.52L87.0456 433.04C85.9256 436.187 84.1923 439.467 81.8456 442.88C79.5523 446.24 76.7256 449.2 73.3656 451.76C70.059 454.32 66.8856 455.6 63.8456 455.6C60.059 455.6 58.1656 453.28 58.1656 448.64C58.1656 444.533 59.499 440.107 62.1656 435.36C64.8323 430.56 68.2723 426.48 72.4856 423.12C76.7523 419.707 80.939 418 85.0456 418C88.0323 418 89.5256 419.173 89.5256 421.52C89.5256 422.8 88.8856 424.533 87.6056 426.72C87.5523 426.773 87.5256 426.853 87.5256 426.96C87.5256 427.067 87.579 427.12 87.6856 427.12C89.659 426.32 91.339 425.893 92.7256 425.84ZM85.1256 427.76C85.5523 425.893 85.7656 424.453 85.7656 423.44C85.7656 421.2 85.019 420.08 83.5256 420.08C81.4456 420.08 78.859 422 75.7656 425.84C72.6723 429.68 70.0056 434 67.7656 438.8C65.579 443.6 64.4856 447.387 64.4856 450.16C64.4856 452.187 65.2056 453.2 66.6456 453.2C68.8856 453.2 71.5523 450.96 74.6456 446.48C77.7923 442 79.6856 437.493 80.3256 432.96C80.2723 432.853 80.2456 432.693 80.2456 432.48C80.2456 430.933 81.6323 429.547 84.4056 428.32C84.8323 428.16 85.0723 427.973 85.1256 427.76ZM119.018 416.96C118.965 418.453 114.938 424.88 106.938 436.24C106.778 436.453 106.698 436.613 106.698 436.72C106.698 437.093 107.391 437.28 108.778 437.28C111.391 437.28 114.298 435.387 117.498 431.6C117.551 431.547 117.631 431.52 117.738 431.52C118.005 431.52 118.138 431.787 118.138 432.32C118.138 432.907 117.498 433.92 116.218 435.36C113.925 437.92 111.125 439.2 107.818 439.2C107.285 439.2 106.805 439.173 106.378 439.12C105.951 439.013 105.631 438.933 105.418 438.88C105.205 438.773 105.071 438.72 105.018 438.72L104.618 438.96C101.631 442.587 98.8848 445.76 96.3781 448.48C93.8715 451.147 92.0848 452.933 91.0181 453.84L89.4981 455.12C88.6448 455.76 87.9781 456.08 87.4981 456.08C86.8581 456.08 86.5381 455.573 86.5381 454.56C86.5381 451.04 87.9248 445.413 90.6981 437.68C93.5248 429.893 95.5515 425.013 96.7781 423.04C98.4848 420.32 100.591 418.96 103.098 418.96C103.471 418.96 103.658 419.147 103.658 419.52C103.658 419.787 103.445 420.347 103.018 421.2C98.3781 430.853 95.4981 439.093 94.3781 445.92C94.3781 446.507 94.4848 446.8 94.6981 446.8C94.9115 446.8 95.2315 446.613 95.6581 446.24C97.9515 444.587 100.538 441.707 103.418 437.6C103.525 437.44 103.578 437.253 103.578 437.04C103.365 436.56 103.258 435.92 103.258 435.12C103.258 431.92 104.858 428.373 108.058 424.48C111.311 420.533 114.591 417.947 117.898 416.72C118.218 416.613 118.431 416.56 118.538 416.56C118.858 416.56 119.018 416.693 119.018 416.96ZM131.25 426.88C131.89 425.547 132.21 424.373 132.21 423.36C132.21 422.507 131.943 422.08 131.41 422.08C131.09 422.08 130.717 422.187 130.29 422.4C129.917 422.56 129.623 422.747 129.41 422.96L129.01 423.28C127.357 424.72 125.277 427.36 122.77 431.2C120.317 434.987 119.09 437.413 119.09 438.48C119.09 438.693 119.143 438.8 119.25 438.8C119.57 438.8 120.263 438.533 121.33 438C122.45 437.467 124.023 436.213 126.05 434.24C128.13 432.267 129.863 429.813 131.25 426.88ZM127.65 445.2C130.477 442.587 134.53 438.267 139.81 432.24C139.97 432.08 140.103 432 140.21 432C140.317 432 140.37 432.107 140.37 432.32C140.37 433.333 139.97 434.32 139.17 435.28C135.223 439.653 131.73 443.307 128.69 446.24C126.45 448.48 123.783 450.64 120.69 452.72C117.597 454.747 115.037 455.76 113.01 455.76C110.557 455.76 109.33 454.053 109.33 450.64C109.33 444.987 111.41 439.067 115.57 432.88C119.783 426.693 124.637 422.507 130.13 420.32C132.423 419.36 134.503 418.88 136.37 418.88C138.45 418.88 139.49 419.707 139.49 421.36C139.49 424.453 137.303 428 132.93 432C128.557 436 123.65 439.04 118.21 441.12C117.997 441.173 117.81 441.36 117.65 441.68C116.85 443.867 116.45 445.813 116.45 447.52C116.45 449.44 117.17 450.4 118.61 450.4C120.903 450.4 123.917 448.667 127.65 445.2ZM159.019 446.24C152.779 452.107 148.672 455.04 146.699 455.04C145.792 455.04 145.339 454.56 145.339 453.6C145.339 453.013 145.472 452.293 145.739 451.44C146.005 450.533 146.325 449.653 146.699 448.8C147.125 447.893 147.525 447.067 147.899 446.32C148.272 445.573 148.645 444.88 149.019 444.24C149.392 443.6 149.579 443.253 149.579 443.2C150.379 441.76 151.579 439.76 153.179 437.2C154.779 434.587 156.059 432.453 157.019 430.8C157.979 429.093 158.459 428.053 158.459 427.68C158.459 427.413 158.325 427.28 158.059 427.28L156.939 427.68C154.485 429.44 151.552 432.187 148.139 435.92C144.725 439.6 141.925 442.853 139.739 445.68L136.459 449.84C135.765 450.853 135.152 451.68 134.619 452.32C134.085 452.96 133.312 453.573 132.299 454.16C131.339 454.8 130.352 455.12 129.339 455.12C128.592 455.12 128.219 454.907 128.219 454.48C128.219 454.053 128.725 452.827 129.739 450.8C130.752 448.72 131.765 446.747 132.779 444.88L134.299 442.16L142.139 428.4C142.939 427.067 143.579 426.053 144.059 425.36C144.592 424.613 145.312 423.707 146.219 422.64C147.125 421.52 148.085 420.693 149.099 420.16C150.165 419.627 151.285 419.307 152.459 419.2C152.885 419.2 153.099 419.387 153.099 419.76C153.099 420.08 153.019 420.347 152.859 420.56C151.632 422.48 149.739 425.653 147.179 430.08C144.672 434.507 143.072 437.387 142.379 438.72C142.219 439.04 142.139 439.28 142.139 439.44C142.139 439.547 142.192 439.6 142.299 439.6C142.405 439.6 142.672 439.44 143.099 439.12C144.112 437.947 145.419 436.48 147.019 434.72C148.672 432.96 151.445 430.32 155.339 426.8C159.232 423.227 162.432 420.827 164.939 419.6C165.525 419.333 166.085 419.2 166.619 419.2C167.365 419.2 167.739 419.627 167.739 420.48C167.312 422.987 165.259 427.28 161.579 433.36C157.525 440.027 155.499 443.973 155.499 445.2C155.499 445.627 155.685 445.84 156.059 445.84C156.325 445.84 156.619 445.76 156.939 445.6C157.312 445.387 157.712 445.12 158.139 444.8C158.565 444.427 158.912 444.107 159.179 443.84C159.499 443.573 159.899 443.227 160.379 442.8C160.859 442.32 161.152 442.027 161.259 441.92C163.499 439.68 166.459 436.453 170.139 432.24C170.299 432.08 170.432 432 170.539 432C170.645 432 170.699 432.107 170.699 432.32C170.699 433.333 170.299 434.32 169.499 435.28C165.552 439.653 162.059 443.307 159.019 446.24ZM185.811 448.96C181.385 453.013 178.345 455.04 176.691 455.04C175.945 455.04 175.571 454.613 175.571 453.76C175.571 452.693 176.025 451.067 176.931 448.88C177.891 446.693 178.851 444.773 179.811 443.12L181.251 440.64C181.465 440.267 181.571 440.027 181.571 439.92C181.571 439.813 181.518 439.76 181.411 439.76C181.198 439.76 180.798 440.053 180.211 440.64C178.611 442.4 176.771 444.293 174.691 446.32C172.665 448.293 171.011 449.84 169.731 450.96L167.891 452.56C165.811 454.16 164.211 454.96 163.091 454.96C161.918 454.96 161.331 454.053 161.331 452.24C161.331 451.333 161.598 449.947 162.131 448.08C162.611 446.213 162.985 444.96 163.251 444.32C164.478 441.333 165.998 438.427 167.811 435.6C169.678 432.773 171.865 430.08 174.371 427.52C176.878 424.907 179.785 422.8 183.091 421.2C186.451 419.6 189.918 418.8 193.491 418.8C196.478 418.8 197.971 419.253 197.971 420.16C197.971 420.693 197.305 420.96 195.971 420.96C191.065 420.96 186.451 423.067 182.131 427.28C177.865 431.44 174.398 436.24 171.731 441.68C170.985 443.173 170.611 444.427 170.611 445.44C170.611 446.027 170.798 446.32 171.171 446.32C171.811 446.32 172.638 445.867 173.651 444.96C174.291 444.373 175.145 443.6 176.211 442.64C177.331 441.68 179.118 439.84 181.571 437.12C184.025 434.4 185.971 431.867 187.411 429.52C187.625 429.093 187.945 428.587 188.371 428C188.851 427.413 189.731 426.64 191.011 425.68C192.291 424.667 193.571 424.16 194.851 424.16C195.545 424.16 195.891 424.347 195.891 424.72C195.891 424.827 195.811 425.013 195.651 425.28C195.438 425.707 194.825 426.773 193.811 428.48C192.851 430.187 191.945 431.813 191.091 433.36C190.238 434.853 189.331 436.507 188.371 438.32C187.411 440.08 186.638 441.6 186.051 442.88C185.518 444.16 185.251 445.013 185.251 445.44C185.251 445.76 185.385 445.92 185.651 445.92C186.451 445.92 188.398 444.373 191.491 441.28C193.838 438.827 196.585 435.813 199.731 432.24C199.891 432.08 200.025 432 200.131 432C200.238 432 200.291 432.107 200.291 432.32C200.291 433.333 199.891 434.32 199.091 435.28C193.865 441.093 189.438 445.653 185.811 448.96ZM218.941 446.24C212.701 452.107 208.594 455.04 206.621 455.04C205.714 455.04 205.261 454.56 205.261 453.6C205.261 453.013 205.394 452.293 205.661 451.44C205.927 450.533 206.247 449.653 206.621 448.8C207.047 447.893 207.447 447.067 207.821 446.32C208.194 445.573 208.567 444.88 208.941 444.24C209.314 443.6 209.501 443.253 209.501 443.2C210.301 441.76 211.501 439.76 213.101 437.2C214.701 434.587 215.981 432.453 216.941 430.8C217.901 429.093 218.381 428.053 218.381 427.68C218.381 427.413 218.247 427.28 217.981 427.28L216.861 427.68C214.407 429.44 211.474 432.187 208.061 435.92C204.647 439.6 201.847 442.853 199.661 445.68L196.381 449.84C195.687 450.853 195.074 451.68 194.541 452.32C194.007 452.96 193.234 453.573 192.221 454.16C191.261 454.8 190.274 455.12 189.261 455.12C188.514 455.12 188.141 454.907 188.141 454.48C188.141 454.053 188.647 452.827 189.661 450.8C190.674 448.72 191.687 446.747 192.701 444.88L194.221 442.16L202.061 428.4C202.861 427.067 203.501 426.053 203.981 425.36C204.514 424.613 205.234 423.707 206.141 422.64C207.047 421.52 208.007 420.693 209.021 420.16C210.087 419.627 211.207 419.307 212.381 419.2C212.807 419.2 213.021 419.387 213.021 419.76C213.021 420.08 212.941 420.347 212.781 420.56C211.554 422.48 209.661 425.653 207.101 430.08C204.594 434.507 202.994 437.387 202.301 438.72C202.141 439.04 202.061 439.28 202.061 439.44C202.061 439.547 202.114 439.6 202.221 439.6C202.327 439.6 202.594 439.44 203.021 439.12C204.034 437.947 205.341 436.48 206.941 434.72C208.594 432.96 211.367 430.32 215.261 426.8C219.154 423.227 222.354 420.827 224.861 419.6C225.447 419.333 226.007 419.2 226.541 419.2C227.287 419.2 227.661 419.627 227.661 420.48C227.234 422.987 225.181 427.28 221.501 433.36C217.447 440.027 215.421 443.973 215.421 445.2C215.421 445.627 215.607 445.84 215.981 445.84C216.247 445.84 216.541 445.76 216.861 445.6C217.234 445.387 217.634 445.12 218.061 444.8C218.487 444.427 218.834 444.107 219.101 443.84C219.421 443.573 219.821 443.227 220.301 442.8C220.781 442.32 221.074 442.027 221.181 441.92C223.421 439.68 226.381 436.453 230.061 432.24C230.221 432.08 230.354 432 230.461 432C230.567 432 230.621 432.107 230.621 432.32C230.621 433.333 230.221 434.32 229.421 435.28C225.474 439.653 221.981 443.307 218.941 446.24ZM241.973 446.24C239.573 448.533 236.853 450.693 233.813 452.72C230.826 454.693 228.293 455.68 226.213 455.68C223.76 455.68 222.533 453.787 222.533 450C222.533 446 223.946 441.573 226.773 436.72C229.6 431.813 233.173 427.627 237.493 424.16C241.866 420.693 246 418.96 249.893 418.96C251.973 418.96 253.013 419.733 253.013 421.28C253.013 423.947 251.28 426.96 247.813 430.32C247.493 430.64 246.8 431.2 245.733 432C244.666 432.8 243.92 433.2 243.493 433.2C243.226 433.2 243.093 433.067 243.093 432.8L243.333 432.08C245.466 428.293 246.533 425.413 246.533 423.44C246.533 422.373 246.186 421.84 245.493 421.84C243.84 421.84 241.733 423.467 239.173 426.72C236.666 429.92 234.48 433.6 232.613 437.76C230.746 441.867 229.813 445.12 229.813 447.52C229.813 449.44 230.506 450.4 231.893 450.4C234.293 450.4 237.306 448.667 240.933 445.2C243.76 442.587 247.813 438.267 253.093 432.24C253.253 432.08 253.386 432 253.493 432C253.6 432 253.653 432.107 253.653 432.32C253.653 433.333 253.253 434.32 252.453 435.28C248.506 439.653 245.013 443.307 241.973 446.24ZM267.5 426.88C268.14 425.547 268.46 424.373 268.46 423.36C268.46 422.507 268.193 422.08 267.66 422.08C267.34 422.08 266.967 422.187 266.54 422.4C266.167 422.56 265.873 422.747 265.66 422.96L265.26 423.28C263.607 424.72 261.527 427.36 259.02 431.2C256.567 434.987 255.34 437.413 255.34 438.48C255.34 438.693 255.393 438.8 255.5 438.8C255.82 438.8 256.513 438.533 257.58 438C258.7 437.467 260.273 436.213 262.3 434.24C264.38 432.267 266.113 429.813 267.5 426.88ZM263.9 445.2C266.727 442.587 270.78 438.267 276.06 432.24C276.22 432.08 276.353 432 276.46 432C276.567 432 276.62 432.107 276.62 432.32C276.62 433.333 276.22 434.32 275.42 435.28C271.473 439.653 267.98 443.307 264.94 446.24C262.7 448.48 260.033 450.64 256.94 452.72C253.847 454.747 251.287 455.76 249.26 455.76C246.807 455.76 245.58 454.053 245.58 450.64C245.58 444.987 247.66 439.067 251.82 432.88C256.033 426.693 260.887 422.507 266.38 420.32C268.673 419.36 270.753 418.88 272.62 418.88C274.7 418.88 275.74 419.707 275.74 421.36C275.74 424.453 273.553 428 269.18 432C264.807 436 259.9 439.04 254.46 441.12C254.247 441.173 254.06 441.36 253.9 441.68C253.1 443.867 252.7 445.813 252.7 447.52C252.7 449.44 253.42 450.4 254.86 450.4C257.153 450.4 260.167 448.667 263.9 445.2ZM351.964 394.64C349.19 398.64 346.097 403.707 342.684 409.84C339.27 415.973 336.55 421.12 334.524 425.28L331.484 431.52C325.99 442.933 323.244 451.12 323.244 456.08C323.244 456.187 323.244 456.4 323.244 456.72C323.297 457.04 323.324 457.307 323.324 457.52C323.324 458.373 323.084 458.8 322.604 458.8C321.697 458.8 320.71 458 319.644 456.4C318.577 454.853 318.044 452.773 318.044 450.16C318.044 447.76 318.604 444.827 319.724 441.36C320.897 437.893 322.604 433.947 324.844 429.52C327.084 425.04 328.95 421.44 330.444 418.72C331.99 416 334.017 412.453 336.524 408.08C336.684 407.76 336.764 407.52 336.764 407.36C336.657 407.093 336.524 406.96 336.364 406.96C336.044 406.96 335.724 407.093 335.404 407.36C332.257 409.92 328.124 414.267 323.004 420.4C317.884 426.533 313.564 432.027 310.044 436.88L304.684 444.16C303.83 445.44 303.137 446.08 302.604 446.08C302.444 446.08 302.31 446.027 302.204 445.92C302.097 445.813 302.017 445.68 301.964 445.52C301.91 445.307 301.857 445.12 301.804 444.96C301.804 444.8 301.804 444.667 301.804 444.56V444.4C302.177 441.093 302.71 436.48 303.404 430.56C304.15 424.64 304.764 419.653 305.244 415.6C305.724 411.547 305.964 409.467 305.964 409.36C305.964 408.827 305.857 408.56 305.644 408.56C305.537 408.56 305.377 408.64 305.164 408.8C305.004 408.96 304.87 409.12 304.764 409.28L304.604 409.52C302.31 412.933 299.857 417.36 297.244 422.8C294.63 428.187 292.524 432.96 290.924 437.12C289.75 440.107 288.55 442.853 287.324 445.36C286.097 447.813 285.004 449.733 284.044 451.12C283.137 452.453 282.31 453.573 281.564 454.48C280.764 455.44 280.15 456.08 279.724 456.4L279.084 456.88C278.497 457.36 278.044 457.6 277.724 457.6C277.404 457.6 277.244 457.333 277.244 456.8L277.324 456.08C277.857 453.253 280.177 447.867 284.284 439.92C288.444 431.973 292.47 424.72 296.364 418.16L302.204 408.4L306.604 400.8C308.79 394.56 310.47 391.44 311.644 391.44C312.444 391.44 312.844 392.8 312.844 395.52C311.19 415.36 310.364 426.693 310.364 429.52C310.364 430.32 310.524 430.72 310.844 430.72C311.164 430.72 311.537 430.427 311.964 429.84C312.657 428.933 313.617 427.707 314.844 426.16C316.07 424.613 318.417 421.84 321.884 417.84C325.35 413.84 328.604 410.24 331.644 407.04C334.737 403.84 338.097 400.773 341.724 397.84C345.35 394.907 348.337 393.12 350.684 392.48C351.217 392.373 351.564 392.32 351.724 392.32C352.364 392.32 352.684 392.56 352.684 393.04C352.684 393.467 352.444 394 351.964 394.64ZM354.014 448.96C349.588 453.013 346.548 455.04 344.894 455.04C344.148 455.04 343.774 454.613 343.774 453.76C343.774 452.693 344.228 451.067 345.134 448.88C346.094 446.693 347.054 444.773 348.014 443.12L349.454 440.64C349.668 440.267 349.774 440.027 349.774 439.92C349.774 439.813 349.721 439.76 349.614 439.76C349.401 439.76 349.001 440.053 348.414 440.64C346.814 442.4 344.974 444.293 342.894 446.32C340.868 448.293 339.214 449.84 337.934 450.96L336.094 452.56C334.014 454.16 332.414 454.96 331.294 454.96C330.121 454.96 329.534 454.053 329.534 452.24C329.534 451.333 329.801 449.947 330.334 448.08C330.814 446.213 331.188 444.96 331.454 444.32C332.681 441.333 334.201 438.427 336.014 435.6C337.881 432.773 340.068 430.08 342.574 427.52C345.081 424.907 347.988 422.8 351.294 421.2C354.654 419.6 358.121 418.8 361.694 418.8C364.681 418.8 366.174 419.253 366.174 420.16C366.174 420.693 365.508 420.96 364.174 420.96C359.268 420.96 354.654 423.067 350.334 427.28C346.068 431.44 342.601 436.24 339.934 441.68C339.188 443.173 338.814 444.427 338.814 445.44C338.814 446.027 339.001 446.32 339.374 446.32C340.014 446.32 340.841 445.867 341.854 444.96C342.494 444.373 343.348 443.6 344.414 442.64C345.534 441.68 347.321 439.84 349.774 437.12C352.228 434.4 354.174 431.867 355.614 429.52C355.828 429.093 356.148 428.587 356.574 428C357.054 427.413 357.934 426.64 359.214 425.68C360.494 424.667 361.774 424.16 363.054 424.16C363.748 424.16 364.094 424.347 364.094 424.72C364.094 424.827 364.014 425.013 363.854 425.28C363.641 425.707 363.028 426.773 362.014 428.48C361.054 430.187 360.148 431.813 359.294 433.36C358.441 434.853 357.534 436.507 356.574 438.32C355.614 440.08 354.841 441.6 354.254 442.88C353.721 444.16 353.454 445.013 353.454 445.44C353.454 445.76 353.588 445.92 353.854 445.92C354.654 445.92 356.601 444.373 359.694 441.28C362.041 438.827 364.788 435.813 367.934 432.24C368.094 432.08 368.228 432 368.334 432C368.441 432 368.494 432.107 368.494 432.32C368.494 433.333 368.094 434.32 367.294 435.28C362.068 441.093 357.641 445.653 354.014 448.96ZM380.424 437.44C379.997 437.44 379.784 437.28 379.784 436.96C379.784 436.8 379.864 436.587 380.024 436.32C383.17 431.413 384.744 428.053 384.744 426.24C384.744 425.76 384.557 425.52 384.184 425.52C382.584 425.52 378.824 429.147 372.904 436.4C371.144 438.64 369.49 440.96 367.944 443.36C366.45 445.76 365.41 447.6 364.824 448.88L363.864 450.72C363.224 452 362.237 453.173 360.904 454.24C359.57 455.36 358.184 455.92 356.744 455.92C355.997 455.92 355.624 455.733 355.624 455.36C355.624 455.04 355.864 454.373 356.344 453.36C356.77 452.347 357.304 451.227 357.944 450C358.584 448.773 359.224 447.573 359.864 446.4C360.504 445.227 361.037 444.24 361.464 443.44L362.184 442.24L370.584 427.6C373.837 421.467 377.25 418.4 380.824 418.4C381.304 418.4 381.544 418.587 381.544 418.96C381.544 419.44 380.37 421.44 378.024 424.96C375.73 428.427 374.397 430.64 374.024 431.6C373.917 431.92 373.864 432.107 373.864 432.16C373.864 432.267 373.917 432.32 374.024 432.32C374.13 432.32 374.317 432.187 374.584 431.92C378.584 427.387 382.824 423.36 387.304 419.84C387.57 419.573 388.157 419.2 389.064 418.72C389.97 418.187 390.77 417.92 391.464 417.92C392.477 417.92 392.984 418.8 392.984 420.56C392.984 422.48 392.344 424.773 391.064 427.44C389.784 430.107 388.05 432.453 385.864 434.48L385.544 434.8C385.33 434.96 385.09 435.147 384.824 435.36C384.61 435.52 384.317 435.733 383.944 436C383.57 436.267 383.197 436.507 382.824 436.72C382.45 436.88 382.05 437.04 381.624 437.2C381.197 437.36 380.797 437.44 380.424 437.44ZM411.303 441.92C413.543 439.68 416.503 436.453 420.183 432.24C420.343 432.08 420.476 432 420.583 432C420.69 432 420.743 432.107 420.743 432.32C420.743 433.333 420.343 434.32 419.543 435.28C415.596 439.653 412.103 443.307 409.063 446.24C408.796 446.507 408.29 447.013 407.543 447.76C406.85 448.453 406.29 449.013 405.863 449.44C405.436 449.813 404.876 450.347 404.183 451.04C403.49 451.68 402.903 452.187 402.423 452.56C401.943 452.933 401.41 453.333 400.823 453.76C400.29 454.133 399.783 454.4 399.303 454.56C398.876 454.773 398.503 454.88 398.183 454.88C397.223 454.88 396.743 454 396.743 452.24C396.743 450.32 397.143 447.867 397.943 444.88C398.796 441.893 399.65 439.387 400.503 437.36L401.703 434.32C401.756 434.213 401.783 434.107 401.783 434C401.783 433.893 401.73 433.84 401.623 433.84L401.143 434C399.116 436.027 397.01 438.32 394.823 440.88C392.69 443.387 391.063 445.387 389.943 446.88L388.263 449.12C387.196 450.773 385.943 452.213 384.503 453.44C383.116 454.667 382.05 455.28 381.303 455.28C380.77 455.28 380.503 454.933 380.503 454.24C380.503 453.227 380.983 451.627 381.943 449.44C382.903 447.253 383.863 445.307 384.823 443.6L386.263 441.04L397.943 420.16C408.45 401.493 416.103 389.12 420.903 383.04C422.503 380.96 423.623 379.92 424.263 379.92C424.53 379.92 424.663 380.133 424.663 380.56C424.663 381.733 423.81 384.027 422.103 387.44C413.73 402.587 407.916 413.067 404.663 418.88C398.316 430.24 394.503 436.987 393.223 439.12V439.44C393.223 439.6 393.276 439.68 393.383 439.68C393.49 439.68 393.65 439.573 393.863 439.36L397.623 435.28C400.183 432.56 402.503 430.16 404.583 428.08C406.663 426 408.983 423.973 411.543 422C414.103 419.973 415.996 418.96 417.223 418.96C418.076 418.96 418.503 419.6 418.503 420.88C418.503 421.627 418.236 422.773 417.703 424.32C417.17 425.867 416.636 426.64 416.103 426.64C415.89 426.64 415.703 426.373 415.543 425.84C415.276 424.507 414.503 423.84 413.223 423.84C411.41 423.84 409.73 425.573 408.183 429.04C406.636 432.453 405.543 435.787 404.903 439.04C404.263 442.24 403.943 444.4 403.943 445.52C403.943 446.693 404.236 447.28 404.823 447.28C405.303 447.28 405.916 446.987 406.663 446.4C407.463 445.76 408.37 444.907 409.383 443.84C410.45 442.773 411.09 442.133 411.303 441.92ZM434.609 426.88C435.249 425.547 435.569 424.373 435.569 423.36C435.569 422.507 435.303 422.08 434.769 422.08C434.449 422.08 434.076 422.187 433.649 422.4C433.276 422.56 432.983 422.747 432.769 422.96L432.369 423.28C430.716 424.72 428.636 427.36 426.129 431.2C423.676 434.987 422.449 437.413 422.449 438.48C422.449 438.693 422.503 438.8 422.609 438.8C422.929 438.8 423.623 438.533 424.689 438C425.809 437.467 427.383 436.213 429.409 434.24C431.489 432.267 433.223 429.813 434.609 426.88ZM431.009 445.2C433.836 442.587 437.889 438.267 443.169 432.24C443.329 432.08 443.463 432 443.569 432C443.676 432 443.729 432.107 443.729 432.32C443.729 433.333 443.329 434.32 442.529 435.28C438.583 439.653 435.089 443.307 432.049 446.24C429.809 448.48 427.143 450.64 424.049 452.72C420.956 454.747 418.396 455.76 416.369 455.76C413.916 455.76 412.689 454.053 412.689 450.64C412.689 444.987 414.769 439.067 418.929 432.88C423.143 426.693 427.996 422.507 433.489 420.32C435.783 419.36 437.863 418.88 439.729 418.88C441.809 418.88 442.849 419.707 442.849 421.36C442.849 424.453 440.663 428 436.289 432C431.916 436 427.009 439.04 421.569 441.12C421.356 441.173 421.169 441.36 421.009 441.68C420.209 443.867 419.809 445.813 419.809 447.52C419.809 449.44 420.529 450.4 421.969 450.4C424.263 450.4 427.276 448.667 431.009 445.2ZM449.498 441.92C451.738 439.68 454.698 436.453 458.378 432.24C458.538 432.08 458.671 432 458.778 432C458.885 432 458.938 432.107 458.938 432.32C458.938 433.333 458.538 434.32 457.738 435.28C453.791 439.653 450.298 443.307 447.258 446.24C440.858 452.427 436.618 455.52 434.538 455.52C433.791 455.52 433.418 455.04 433.418 454.08C433.418 452.96 433.845 451.28 434.698 449.04C435.551 446.8 436.405 444.827 437.258 443.12L438.538 440.64C439.765 438.453 441.791 434.72 444.618 429.44C447.445 424.16 450.165 419.173 452.778 414.48C455.445 409.787 457.951 405.547 460.298 401.76H453.978C453.445 401.76 453.178 401.627 453.178 401.36C453.178 401.093 453.391 400.827 453.818 400.56C454.245 400.293 454.698 400.16 455.178 400.16C456.351 400.16 458.405 400.133 461.338 400.08C463.951 395.973 466.191 392.72 468.058 390.32C469.711 388.24 470.858 387.2 471.498 387.2C471.871 387.2 472.058 387.44 472.058 387.92C472.058 389.04 471.045 391.44 469.018 395.12L466.298 400.08H474.538C475.018 400.08 475.258 400.213 475.258 400.48C475.258 401.333 474.485 401.76 472.938 401.76H465.418C453.098 425.12 446.618 437.36 445.978 438.48C443.738 442.587 442.618 445.253 442.618 446.48C442.618 446.853 442.751 447.04 443.018 447.04C443.765 447.04 445.925 445.333 449.498 441.92Z" fill="black"/>
<path d="M47.8616 285.973L237.615 4.47345L386.524 309.554L47.8616 285.973Z" stroke="black" stroke-width="4"/>
<path d="M28.0098 198.039L323.693 31.2479L320.297 370.713L28.0098 198.039Z" stroke="black" stroke-width="4"/>
<path d="M118.752 365.345L133.431 26.1805L419.817 208.475L118.752 365.345Z" stroke="black" stroke-width="4"/>
<path d="M274.85 389.289L34.6461 149.393L362.504 61.3183L274.85 389.289Z" stroke="black" stroke-width="4"/>
<path d="M356.45 344.475L32.6559 242.467L282.895 13.0577L356.45 344.475Z" stroke="black" stroke-width="4"/>
<path d="M408.277 266.769L74.0379 326.204L189.685 7.02719L408.277 266.769Z" stroke="black" stroke-width="4"/>
<path d="M167.021 387.535L90.0794 56.8872L414.9 155.578L167.021 387.535Z" stroke="black" stroke-width="4"/>
<path d="M396.534 107.006L218.268 395.916L57.1976 97.078L396.534 107.006Z" stroke="black" stroke-width="4"/>
</svg>